<?xml version="1.0" encoding="UTF-8" standalone="no"?>
<!DOCTYPE svg PUBLIC "-//W3C//DTD SVG 1.1//EN" "http://www.w3.org/Graphics/SVG/1.1/DTD/svg11.dtd">
<svg xmlns="http://www.w3.org/2000/svg" version="1.1" viewBox="0.00 0.00 512.00 512.00">
<g stroke-width="2.00" fill="none" stroke-linecap="butt">
<path stroke="#40baee" vector-effect="non-scaling-stroke" d="
  M 511.26 236.48
  Q 511.10 236.56 510.95 236.60
  Q 510.54 236.69 510.24 236.39
  L 431.64 157.59"
/>
<path stroke="#bfdfde" vector-effect="non-scaling-stroke" d="
  M 431.64 157.59
  Q 422.51 147.59 414.20 143.32
  Q 398.64 135.34 378.82 133.44"
/>
<path stroke="#40baee" vector-effect="non-scaling-stroke" d="
  M 378.82 133.44
  L 325.88 80.41"
/>
<path stroke="#bf6db8" vector-effect="non-scaling-stroke" d="
  M 325.88 80.41
  Q 312.47 64.50 292.96 71.06"
/>
<path stroke="#bfdfde" vector-effect="non-scaling-stroke" d="
  M 292.96 71.06
  Q 277.27 55.41 256.09 54.41"
/>
<path stroke="#bfe4f8" vector-effect="non-scaling-stroke" d="
  M 256.09 54.41
  Q 240.69 55.34 229.16 63.20
  C 210.19 76.15 197.41 97.32 189.02 118.75
  Q 185.78 127.02 182.60 135.57
  Q 182.42 136.06 181.90 135.99
  Q 167.56 133.90 153.10 133.24
  C 145.41 132.90 137.00 133.47 129.76 134.26
  C 104.13 137.05 74.44 150.76 72.23 180.37"
/>
<path stroke="#bfb989" vector-effect="non-scaling-stroke" d="
  M 72.23 180.37
  C 53.03 189.67 50.68 213.65 66.67 227.36"
/>
<path stroke="#40baee" vector-effect="non-scaling-stroke" d="
  M 66.67 227.36
  L 100.92 261.29"
/>
<path stroke="#bfe4f8" vector-effect="non-scaling-stroke" d="
  M 100.92 261.29
  C 86.47 278.72 72.09 301.64 71.72 325.01
  Q 71.59 332.88 73.30 339.01
  Q 76.89 351.95 88.92 362.96"
/>
<path stroke="#40baee" vector-effect="non-scaling-stroke" d="
  M 88.92 362.96
  L 237.29 511.18"
/>
<path stroke="#ff84a5" vector-effect="non-scaling-stroke" d="
  M 292.96 71.06
  Q 283.03 75.55 278.35 85.15"
/>
<path stroke="#80d1db" vector-effect="non-scaling-stroke" d="
  M 278.35 85.15
  Q 268.82 75.59 255.92 74.61"
/>
<path stroke="#fffae5" vector-effect="non-scaling-stroke" d="
  M 255.92 74.61
  L 256.09 54.41"
/>
<path stroke="#80d6f5" vector-effect="non-scaling-stroke" d="
  M 255.92 74.61
  C 227.96 75.70 209.70 117.07 202.50 139.16
  Q 202.34 139.66 202.85 139.78
  Q 229.87 146.20 255.86 156.31"
/>
<path stroke="#fffae5" vector-effect="non-scaling-stroke" d="
  M 255.86 156.31
  L 255.88 178.02"
/>
<path stroke="#80d6f5" vector-effect="non-scaling-stroke" d="
  M 255.88 178.02
  Q 220.27 192.70 187.46 213.55
  Q 187.07 213.80 187.02 214.27
  Q 183.13 256.00 187.02 297.73
  Q 187.06 298.20 187.46 298.46
  Q 220.09 319.18 255.88 334.00"
/>
<path stroke="#fffae5" vector-effect="non-scaling-stroke" d="
  M 255.88 334.00
  L 255.97 355.69"
/>
<path stroke="#80d6f5" vector-effect="non-scaling-stroke" d="
  M 255.97 355.69
  Q 230.15 365.65 202.92 372.25
  Q 202.43 372.37 202.58 372.85
  C 209.72 395.59 227.78 435.59 255.97 437.48"
/>
<path stroke="#fffae5" vector-effect="non-scaling-stroke" d="
  M 255.97 437.48
  L 256.09 457.64"
/>
<path stroke="#80d6f5" vector-effect="non-scaling-stroke" d="
  M 256.09 457.64
  C 215.50 455.80 193.38 409.34 182.68 376.68
  Q 182.51 376.17 181.98 376.24
  Q 172.61 377.35 163.25 378.30
  Q 137.29 380.92 112.17 374.37
  Q 101.06 371.47 88.92 362.96"
/>
<path stroke="#80d6f5" vector-effect="non-scaling-stroke" d="
  M 100.92 261.29
  L 104.83 256.44
  Q 105.18 256.01 104.82 255.60
  Q 95.60 244.85 87.53 232.70"
/>
<path stroke="#ffd590" vector-effect="non-scaling-stroke" d="
  M 87.53 232.70
  Q 98.25 230.78 104.90 222.70"
/>
<path stroke="#80d6f5" vector-effect="non-scaling-stroke" d="
  M 104.90 222.70
  Q 111.21 232.40 118.74 241.03
  Q 119.13 241.48 119.55 241.07
  Q 141.99 219.66 167.84 202.51
  A 1.10 1.09 -13.5 0 0 168.32 201.73
  Q 171.15 178.58 176.69 155.95
  Q 176.81 155.43 176.29 155.35
  C 154.60 151.67 128.43 151.06 108.36 160.63
  Q 96.03 166.51 92.17 179.34"
/>
<path stroke="#ffd590" vector-effect="non-scaling-stroke" d="
  M 92.17 179.34
  Q 82.04 176.23 72.23 180.37"
/>
<path stroke="#80d6f5" vector-effect="non-scaling-stroke" d="
  M 190.87 188.10
  C 203.04 181.03 215.53 174.33 228.29 168.26
  Q 229.01 167.92 228.26 167.67
  Q 212.83 162.60 196.99 159.00
  Q 196.27 158.83 196.12 159.55
  L 190.26 187.65
  A 0.41 0.41 0.0 0 0 190.87 188.10"
/>
<path stroke="#80d6f5" vector-effect="non-scaling-stroke" d="
  M 165.43 228.66
  Q 148.52 241.11 133.35 255.61
  Q 132.94 256.01 133.35 256.40
  Q 148.52 270.88 165.42 283.33
  A 0.31 0.31 0.0 0 0 165.91 283.07
  Q 164.40 256.42 165.85 229.76
  Q 165.88 229.07 165.68 228.71
  Q 165.59 228.55 165.43 228.66"
/>
<path stroke="#80d6f5" vector-effect="non-scaling-stroke" d="
  M 113.43 353.62
  C 133.37 360.68 155.82 359.90 176.43 356.71
  A 0.38 0.37 -12.0 0 0 176.74 356.25
  Q 171.17 333.52 168.33 310.28
  Q 168.26 309.77 167.83 309.48
  Q 142.05 292.37 119.64 271.04
  Q 119.23 270.64 118.84 271.06
  C 100.82 290.66 70.60 338.44 113.43 353.62"
/>
<path stroke="#80d6f5" vector-effect="non-scaling-stroke" d="
  M 228.31 343.73
  C 216.61 338.29 204.34 331.62 191.04 324.03
  Q 190.07 323.48 190.30 324.57
  L 196.17 352.64
  Q 196.28 353.17 196.80 353.05
  Q 212.74 349.43 228.27 344.33
  Q 229.04 344.08 228.31 343.73"
/>
<path stroke="#805fb5" vector-effect="non-scaling-stroke" d="
  M 325.88 80.41
  Q 337.37 99.98 322.57 116.37"
/>
<path stroke="#ff84a5" vector-effect="non-scaling-stroke" d="
  M 322.57 116.37
  Q 314.60 123.65 303.76 124.09"
/>
<path stroke="#805fb5" vector-effect="non-scaling-stroke" d="
  M 303.76 124.09
  C 283.22 123.69 270.53 104.28 278.35 85.15"
/>
<path stroke="#80d1db" vector-effect="non-scaling-stroke" d="
  M 303.76 124.09
  L 309.43 139.16
  A 0.36 0.35 -16.4 0 1 309.17 139.63
  Q 281.82 145.97 255.86 156.31"
/>
<path stroke="#80d1db" vector-effect="non-scaling-stroke" d="
  M 378.82 133.44
  Q 357.91 132.27 350.00 133.26
  Q 340.14 134.50 330.25 135.50
  A 0.71 0.71 0.0 0 1 329.51 135.04
  L 322.57 116.37"
/>
<path stroke="#80d1db" vector-effect="non-scaling-stroke" d="
  M 431.64 157.59
  Q 437.09 165.64 438.92 172.76
  C 446.58 202.61 426.24 234.14 407.48 255.42
  A 0.97 0.97 0.0 0 0 407.49 256.71
  C 424.45 275.38 441.29 302.13 440.66 327.99
  Q 440.19 346.87 425.61 360.34
  Q 417.65 367.68 409.19 371.17
  Q 390.23 378.98 368.24 378.96
  Q 360.84 378.96 356.09 378.90
  C 347.74 378.80 338.88 377.37 330.27 376.51
  A 0.93 0.93 0.0 0 0 329.28 377.17
  C 319.42 408.80 295.53 457.00 256.09 457.64"
/>
<path stroke="#80d1db" vector-effect="non-scaling-stroke" d="
  M 255.97 437.48
  Q 268.40 436.11 277.67 427.77
  C 292.89 414.05 303.01 392.04 309.30 372.81
  Q 309.44 372.39 309.01 372.29
  Q 282.15 366.19 255.97 355.69"
/>
<path stroke="#80d1db" vector-effect="non-scaling-stroke" d="
  M 255.88 334.00
  Q 281.83 323.14 306.49 309.15"
/>
<path stroke="#8e92d5" vector-effect="non-scaling-stroke" d="
  M 306.49 309.15
  Q 307.89 319.90 315.64 327.16"
/>
<path stroke="#80d1db" vector-effect="non-scaling-stroke" d="
  M 315.64 327.16
  L 284.16 343.72
  A 0.45 0.45 0.0 0 0 284.25 344.55
  L 314.65 352.96
  Q 315.32 353.14 315.46 352.46
  L 320.26 330.42"
/>
<path stroke="#8e92d5" vector-effect="non-scaling-stroke" d="
  M 320.26 330.42
  Q 329.64 335.60 340.50 333.35"
/>
<path stroke="#80d1db" vector-effect="non-scaling-stroke" d="
  M 340.50 333.35
  L 335.60 356.14
  Q 335.50 356.62 335.99 356.69
  C 354.55 359.09 371.44 360.10 389.26 356.22
  C 443.08 344.49 414.69 295.49 393.21 271.25
  Q 392.85 270.85 392.47 271.21
  Q 377.43 285.38 360.31 298.36"
/>
<path stroke="#8e92d5" vector-effect="non-scaling-stroke" d="
  M 360.31 298.36
  Q 356.70 288.20 347.35 282.50"
/>
<path stroke="#80d1db" vector-effect="non-scaling-stroke" d="
  M 347.35 282.50
  Q 363.73 270.46 378.39 256.36
  Q 378.79 255.98 378.39 255.60
  Q 363.48 241.36 346.90 229.11
  Q 346.40 228.75 346.43 229.36
  Q 347.52 255.65 346.45 282.04"
/>
<path stroke="#8e92d5" vector-effect="non-scaling-stroke" d="
  M 346.45 282.04
  Q 336.60 277.41 326.02 280.16"
/>
<path stroke="#80d1db" vector-effect="non-scaling-stroke" d="
  M 326.02 280.16
  Q 328.02 247.24 324.73 214.33
  Q 324.68 213.83 324.26 213.56
  Q 291.65 192.93 255.88 178.02"
/>
<path stroke="#80d1db" vector-effect="non-scaling-stroke" d="
  M 392.95 240.90
  C 406.76 225.92 428.81 193.63 416.81 172.63
  C 407.38 156.12 381.29 153.25 364.48 153.06
  Q 354.17 152.95 335.99 155.34
  Q 335.49 155.41 335.59 155.90
  Q 337.35 164.19 339.14 172.49
  C 341.17 181.93 342.36 191.96 344.02 201.76
  Q 344.11 202.29 344.56 202.59
  Q 370.24 219.63 392.53 240.91
  Q 392.75 241.12 392.95 240.90"
/>
<path stroke="#80d1db" vector-effect="non-scaling-stroke" d="
  M 284.34 167.43
  A 0.33 0.33 0.0 0 0 284.27 168.04
  L 320.99 187.52
  A 0.33 0.33 0.0 0 0 321.47 187.16
  L 315.61 159.14
  A 0.33 0.33 0.0 0 0 315.20 158.89
  L 284.34 167.43"
/>
<path stroke="#80ab85" vector-effect="non-scaling-stroke" d="
  M 104.90 222.70
  C 117.07 207.14 110.25 186.33 92.17 179.34"
/>
<path stroke="#80ab85" vector-effect="non-scaling-stroke" d="
  M 87.53 232.70
  Q 76.21 234.02 66.67 227.36"
/>
<path stroke="#0e6de4" vector-effect="non-scaling-stroke" d="
  M 326.02 280.16
  Q 306.01 287.66 306.49 309.15"
/>
<path stroke="#4ed5f5" vector-effect="non-scaling-stroke" d="
  M 256.03 214.21
  Q 247.75 214.05 240.21 217.21
  C 209.15 230.20 204.94 271.61 232.69 290.79
  Q 243.03 297.94 256.03 297.80"
/>
<path stroke="#00caee" vector-effect="non-scaling-stroke" d="
  M 256.03 297.80
  Q 261.24 298.07 263.50 297.55
  C 310.07 286.85 309.31 223.66 262.74 214.30
  Q 260.06 213.76 256.03 214.21"
/>
<path stroke="#4ef3f9" vector-effect="non-scaling-stroke" d="
  M 256.03 297.80
  L 256.03 214.21"
/>
<path stroke="#0e6de4" vector-effect="non-scaling-stroke" d="
  M 347.35 282.50
  Q 347.62 283.03 346.45 282.04"
/>
<path stroke="#0e6de4" vector-effect="non-scaling-stroke" d="
  M 340.50 333.35
  Q 360.38 327.14 361.46 306.25
  Q 361.58 303.79 360.31 298.36"
/>
<path stroke="#0e6de4" vector-effect="non-scaling-stroke" d="
  M 320.26 330.42
  L 315.64 327.16"
/>
</g>
<path fill="#7fc8f1" d="
  M 251.39 0.00
  L 260.73 0.00
  C 393.63 3.12 500.29 104.61 511.26 236.48
  Q 511.10 236.56 510.95 236.60
  Q 510.54 236.69 510.24 236.39
  L 431.64 157.59
  Q 422.51 147.59 414.20 143.32
  Q 398.64 135.34 378.82 133.44
  L 325.88 80.41
  Q 312.47 64.50 292.96 71.06
  Q 277.27 55.41 256.09 54.41
  Q 240.69 55.34 229.16 63.20
  C 210.19 76.15 197.41 97.32 189.02 118.75
  Q 185.78 127.02 182.60 135.57
  Q 182.42 136.06 181.90 135.99
  Q 167.56 133.90 153.10 133.24
  C 145.41 132.90 137.00 133.47 129.76 134.26
  C 104.13 137.05 74.44 150.76 72.23 180.37
  C 53.03 189.67 50.68 213.65 66.67 227.36
  L 100.92 261.29
  C 86.47 278.72 72.09 301.64 71.72 325.01
  Q 71.59 332.88 73.30 339.01
  Q 76.89 351.95 88.92 362.96
  L 237.29 511.18
  C 171.60 506.40 109.64 476.25 66.11 427.65
  Q 2.91 357.09 0.00 260.64
  L 0.00 251.25
  Q 2.48 163.13 56.55 95.55
  C 103.69 36.63 175.17 1.75 251.39 0.00
  Z"
/>
<path fill="#fff5cb" d="
  M 292.96 71.06
  Q 283.03 75.55 278.35 85.15
  Q 268.82 75.59 255.92 74.61
  L 256.09 54.41
  Q 277.27 55.41 292.96 71.06
  Z"
/>
<path fill="#ffffff" d="
  M 256.09 54.41
  L 255.92 74.61
  C 227.96 75.70 209.70 117.07 202.50 139.16
  Q 202.34 139.66 202.85 139.78
  Q 229.87 146.20 255.86 156.31
  L 255.88 178.02
  Q 220.27 192.70 187.46 213.55
  Q 187.07 213.80 187.02 214.27
  Q 183.13 256.00 187.02 297.73
  Q 187.06 298.20 187.46 298.46
  Q 220.09 319.18 255.88 334.00
  L 255.97 355.69
  Q 230.15 365.65 202.92 372.25
  Q 202.43 372.37 202.58 372.85
  C 209.72 395.59 227.78 435.59 255.97 437.48
  L 256.09 457.64
  C 215.50 455.80 193.38 409.34 182.68 376.68
  Q 182.51 376.17 181.98 376.24
  Q 172.61 377.35 163.25 378.30
  Q 137.29 380.92 112.17 374.37
  Q 101.06 371.47 88.92 362.96
  Q 76.89 351.95 73.30 339.01
  Q 71.59 332.88 71.72 325.01
  C 72.09 301.64 86.47 278.72 100.92 261.29
  L 104.83 256.44
  Q 105.18 256.01 104.82 255.60
  Q 95.60 244.85 87.53 232.70
  Q 98.25 230.78 104.90 222.70
  Q 111.21 232.40 118.74 241.03
  Q 119.13 241.48 119.55 241.07
  Q 141.99 219.66 167.84 202.51
  A 1.10 1.09 -13.5 0 0 168.32 201.73
  Q 171.15 178.58 176.69 155.95
  Q 176.81 155.43 176.29 155.35
  C 154.60 151.67 128.43 151.06 108.36 160.63
  Q 96.03 166.51 92.17 179.34
  Q 82.04 176.23 72.23 180.37
  C 74.44 150.76 104.13 137.05 129.76 134.26
  C 137.00 133.47 145.41 132.90 153.10 133.24
  Q 167.56 133.90 181.90 135.99
  Q 182.42 136.06 182.60 135.57
  Q 185.78 127.02 189.02 118.75
  C 197.41 97.32 210.19 76.15 229.16 63.20
  Q 240.69 55.34 256.09 54.41
  Z
  M 190.87 188.10
  C 203.04 181.03 215.53 174.33 228.29 168.26
  Q 229.01 167.92 228.26 167.67
  Q 212.83 162.60 196.99 159.00
  Q 196.27 158.83 196.12 159.55
  L 190.26 187.65
  A 0.41 0.41 0.0 0 0 190.87 188.10
  Z
  M 165.43 228.66
  Q 148.52 241.11 133.35 255.61
  Q 132.94 256.01 133.35 256.40
  Q 148.52 270.88 165.42 283.33
  A 0.31 0.31 0.0 0 0 165.91 283.07
  Q 164.40 256.42 165.85 229.76
  Q 165.88 229.07 165.68 228.71
  Q 165.59 228.55 165.43 228.66
  Z
  M 113.43 353.62
  C 133.37 360.68 155.82 359.90 176.43 356.71
  A 0.38 0.37 -12.0 0 0 176.74 356.25
  Q 171.17 333.52 168.33 310.28
  Q 168.26 309.77 167.83 309.48
  Q 142.05 292.37 119.64 271.04
  Q 119.23 270.64 118.84 271.06
  C 100.82 290.66 70.60 338.44 113.43 353.62
  Z
  M 228.31 343.73
  C 216.61 338.29 204.34 331.62 191.04 324.03
  Q 190.07 323.48 190.30 324.57
  L 196.17 352.64
  Q 196.28 353.17 196.80 353.05
  Q 212.74 349.43 228.27 344.33
  Q 229.04 344.08 228.31 343.73
  Z"
/>
<path fill="#ff127f" d="
  M 325.88 80.41
  Q 337.37 99.98 322.57 116.37
  Q 314.60 123.65 303.76 124.09
  C 283.22 123.69 270.53 104.28 278.35 85.15
  Q 283.03 75.55 292.96 71.06
  Q 312.47 64.50 325.88 80.41
  Z"
/>
<path fill="#00acea" d="
  M 255.92 74.61
  Q 268.82 75.59 278.35 85.15
  C 270.53 104.28 283.22 123.69 303.76 124.09
  L 309.43 139.16
  A 0.36 0.35 -16.4 0 1 309.17 139.63
  Q 281.82 145.97 255.86 156.31
  Q 229.87 146.20 202.85 139.78
  Q 202.34 139.66 202.50 139.16
  C 209.70 117.07 227.96 75.70 255.92 74.61
  Z"
/>
<path fill="#00acea" d="
  M 325.88 80.41
  L 378.82 133.44
  Q 357.91 132.27 350.00 133.26
  Q 340.14 134.50 330.25 135.50
  A 0.71 0.71 0.0 0 1 329.51 135.04
  L 322.57 116.37
  Q 337.37 99.98 325.88 80.41
  Z"
/>
<path fill="#fff5cb" d="
  M 322.57 116.37
  L 329.51 135.04
  A 0.71 0.71 0.0 0 0 330.25 135.50
  Q 340.14 134.50 350.00 133.26
  Q 357.91 132.27 378.82 133.44
  Q 398.64 135.34 414.20 143.32
  Q 422.51 147.59 431.64 157.59
  Q 437.09 165.64 438.92 172.76
  C 446.58 202.61 426.24 234.14 407.48 255.42
  A 0.97 0.97 0.0 0 0 407.49 256.71
  C 424.45 275.38 441.29 302.13 440.66 327.99
  Q 440.19 346.87 425.61 360.34
  Q 417.65 367.68 409.19 371.17
  Q 390.23 378.98 368.24 378.96
  Q 360.84 378.96 356.09 378.90
  C 347.74 378.80 338.88 377.37 330.27 376.51
  A 0.93 0.93 0.0 0 0 329.28 377.17
  C 319.42 408.80 295.53 457.00 256.09 457.64
  L 255.97 437.48
  Q 268.40 436.11 277.67 427.77
  C 292.89 414.05 303.01 392.04 309.30 372.81
  Q 309.44 372.39 309.01 372.29
  Q 282.15 366.19 255.97 355.69
  L 255.88 334.00
  Q 281.83 323.14 306.49 309.15
  Q 307.89 319.90 315.64 327.16
  L 284.16 343.72
  A 0.45 0.45 0.0 0 0 284.25 344.55
  L 314.65 352.96
  Q 315.32 353.14 315.46 352.46
  L 320.26 330.42
  Q 329.64 335.60 340.50 333.35
  L 335.60 356.14
  Q 335.50 356.62 335.99 356.69
  C 354.55 359.09 371.44 360.10 389.26 356.22
  C 443.08 344.49 414.69 295.49 393.21 271.25
  Q 392.85 270.85 392.47 271.21
  Q 377.43 285.38 360.31 298.36
  Q 356.70 288.20 347.35 282.50
  Q 363.73 270.46 378.39 256.36
  Q 378.79 255.98 378.39 255.60
  Q 363.48 241.36 346.90 229.11
  Q 346.40 228.75 346.43 229.36
  Q 347.52 255.65 346.45 282.04
  Q 336.60 277.41 326.02 280.16
  Q 328.02 247.24 324.73 214.33
  Q 324.68 213.83 324.26 213.56
  Q 291.65 192.93 255.88 178.02
  L 255.86 156.31
  Q 281.82 145.97 309.17 139.63
  A 0.36 0.35 -16.4 0 0 309.43 139.16
  L 303.76 124.09
  Q 314.60 123.65 322.57 116.37
  Z
  M 392.95 240.90
  C 406.76 225.92 428.81 193.63 416.81 172.63
  C 407.38 156.12 381.29 153.25 364.48 153.06
  Q 354.17 152.95 335.99 155.34
  Q 335.49 155.41 335.59 155.90
  Q 337.35 164.19 339.14 172.49
  C 341.17 181.93 342.36 191.96 344.02 201.76
  Q 344.11 202.29 344.56 202.59
  Q 370.24 219.63 392.53 240.91
  Q 392.75 241.12 392.95 240.90
  Z
  M 284.34 167.43
  A 0.33 0.33 0.0 0 0 284.27 168.04
  L 320.99 187.52
  A 0.33 0.33 0.0 0 0 321.47 187.16
  L 315.61 159.14
  A 0.33 0.33 0.0 0 0 315.20 158.89
  L 284.34 167.43
  Z"
/>
<path fill="#00acea" d="
  M 104.90 222.70
  C 117.07 207.14 110.25 186.33 92.17 179.34
  Q 96.03 166.51 108.36 160.63
  C 128.43 151.06 154.60 151.67 176.29 155.35
  Q 176.81 155.43 176.69 155.95
  Q 171.15 178.58 168.32 201.73
  A 1.10 1.09 -13.5 0 1 167.84 202.51
  Q 141.99 219.66 119.55 241.07
  Q 119.13 241.48 118.74 241.03
  Q 111.21 232.40 104.90 222.70
  Z"
/>
<path fill="#00acea" d="
  M 416.81 172.63
  C 428.81 193.63 406.76 225.92 392.95 240.90
  Q 392.75 241.12 392.53 240.91
  Q 370.24 219.63 344.56 202.59
  Q 344.11 202.29 344.02 201.76
  C 342.36 191.96 341.17 181.93 339.14 172.49
  Q 337.35 164.19 335.59 155.90
  Q 335.49 155.41 335.99 155.34
  Q 354.17 152.95 364.48 153.06
  C 381.29 153.25 407.38 156.12 416.81 172.63
  Z"
/>
<path fill="#00acea" d="
  M 431.64 157.59
  L 510.24 236.39
  Q 510.54 236.69 510.95 236.60
  Q 511.10 236.56 511.26 236.48
  L 512.00 244.38
  L 512.00 269.00
  Q 511.42 274.24 510.97 279.48
  C 504.57 355.41 462.62 425.29 399.90 467.88
  C 364.03 492.24 321.74 507.77 278.19 511.08
  Q 273.65 511.42 269.12 512.00
  L 244.25 512.00
  L 237.29 511.18
  L 88.92 362.96
  Q 101.06 371.47 112.17 374.37
  Q 137.29 380.92 163.25 378.30
  Q 172.61 377.35 181.98 376.24
  Q 182.51 376.17 182.68 376.68
  C 193.38 409.34 215.50 455.80 256.09 457.64
  C 295.53 457.00 319.42 408.80 329.28 377.17
  A 0.93 0.93 0.0 0 1 330.27 376.51
  C 338.88 377.37 347.74 378.80 356.09 378.90
  Q 360.84 378.96 368.24 378.96
  Q 390.23 378.98 409.19 371.17
  Q 417.65 367.68 425.61 360.34
  Q 440.19 346.87 440.66 327.99
  C 441.29 302.13 424.45 275.38 407.49 256.71
  A 0.97 0.97 0.0 0 1 407.48 255.42
  C 426.24 234.14 446.58 202.61 438.92 172.76
  Q 437.09 165.64 431.64 157.59
  Z"
/>
<path fill="#00acea" d="
  M 228.29 168.26
  C 215.53 174.33 203.04 181.03 190.87 188.10
  A 0.41 0.41 0.0 0 1 190.26 187.65
  L 196.12 159.55
  Q 196.27 158.83 196.99 159.00
  Q 212.83 162.60 228.26 167.67
  Q 229.01 167.92 228.29 168.26
  Z"
/>
<path fill="#00acea" d="
  M 284.34 167.43
  L 315.20 158.89
  A 0.33 0.33 0.0 0 1 315.61 159.14
  L 321.47 187.16
  A 0.33 0.33 0.0 0 1 320.99 187.52
  L 284.27 168.04
  A 0.33 0.33 0.0 0 1 284.34 167.43
  Z"
/>
<path fill="#ffaa20" d="
  M 92.17 179.34
  C 110.25 186.33 117.07 207.14 104.90 222.70
  Q 98.25 230.78 87.53 232.70
  Q 76.21 234.02 66.67 227.36
  C 50.68 213.65 53.03 189.67 72.23 180.37
  Q 82.04 176.23 92.17 179.34
  Z"
/>
<path fill="#00acea" d="
  M 255.88 178.02
  Q 291.65 192.93 324.26 213.56
  Q 324.68 213.83 324.73 214.33
  Q 328.02 247.24 326.02 280.16
  Q 306.01 287.66 306.49 309.15
  Q 281.83 323.14 255.88 334.00
  Q 220.09 319.18 187.46 298.46
  Q 187.06 298.20 187.02 297.73
  Q 183.13 256.00 187.02 214.27
  Q 187.07 213.80 187.46 213.55
  Q 220.27 192.70 255.88 178.02
  Z
  M 256.03 214.21
  Q 247.75 214.05 240.21 217.21
  C 209.15 230.20 204.94 271.61 232.69 290.79
  Q 243.03 297.94 256.03 297.80
  Q 261.24 298.07 263.50 297.55
  C 310.07 286.85 309.31 223.66 262.74 214.30
  Q 260.06 213.76 256.03 214.21
  Z"
/>
<path fill="#00e8f2" d="
  M 256.03 297.80
  L 256.03 214.21
  Q 260.06 213.76 262.74 214.30
  C 309.31 223.66 310.07 286.85 263.50 297.55
  Q 261.24 298.07 256.03 297.80
  Z"
/>
<path fill="#9cfdff" d="
  M 256.03 214.21
  L 256.03 297.80
  Q 243.03 297.94 232.69 290.79
  C 204.94 271.61 209.15 230.20 240.21 217.21
  Q 247.75 214.05 256.03 214.21
  Z"
/>
<path fill="#00acea" d="
  M 66.67 227.36
  Q 76.21 234.02 87.53 232.70
  Q 95.60 244.85 104.82 255.60
  Q 105.18 256.01 104.83 256.44
  L 100.92 261.29
  L 66.67 227.36
  Z"
/>
<path fill="#00acea" d="
  M 165.43 228.66
  Q 165.59 228.55 165.68 228.71
  Q 165.88 229.07 165.85 229.76
  Q 164.40 256.42 165.91 283.07
  A 0.31 0.31 0.0 0 1 165.42 283.33
  Q 148.52 270.88 133.35 256.40
  Q 132.94 256.01 133.35 255.61
  Q 148.52 241.11 165.43 228.66
  Z"
/>
<path fill="#00acea" d="
  M 347.35 282.50
  Q 347.62 283.03 346.45 282.04
  Q 347.52 255.65 346.43 229.36
  Q 346.40 228.75 346.90 229.11
  Q 363.48 241.36 378.39 255.60
  Q 378.79 255.98 378.39 256.36
  Q 363.73 270.46 347.35 282.50
  Z"
/>
<path fill="#00acea" d="
  M 113.43 353.62
  C 70.60 338.44 100.82 290.66 118.84 271.06
  Q 119.23 270.64 119.64 271.04
  Q 142.05 292.37 167.83 309.48
  Q 168.26 309.77 168.33 310.28
  Q 171.17 333.52 176.74 356.25
  A 0.38 0.37 -12.0 0 1 176.43 356.71
  C 155.82 359.90 133.37 360.68 113.43 353.62
  Z"
/>
<path fill="#00acea" d="
  M 340.50 333.35
  Q 360.38 327.14 361.46 306.25
  Q 361.58 303.79 360.31 298.36
  Q 377.43 285.38 392.47 271.21
  Q 392.85 270.85 393.21 271.25
  C 414.69 295.49 443.08 344.49 389.26 356.22
  C 371.44 360.10 354.55 359.09 335.99 356.69
  Q 335.50 356.62 335.60 356.14
  L 340.50 333.35
  Z"
/>
<path fill="#1c2ede" d="
  M 346.45 282.04
  Q 347.62 283.03 347.35 282.50
  Q 356.70 288.20 360.31 298.36
  Q 361.58 303.79 361.46 306.25
  Q 360.38 327.14 340.50 333.35
  Q 329.64 335.60 320.26 330.42
  L 315.64 327.16
  Q 307.89 319.90 306.49 309.15
  Q 306.01 287.66 326.02 280.16
  Q 336.60 277.41 346.45 282.04
  Z"
/>
<path fill="#00acea" d="
  M 191.04 324.03
  C 204.34 331.62 216.61 338.29 228.31 343.73
  Q 229.04 344.08 228.27 344.33
  Q 212.74 349.43 196.80 353.05
  Q 196.28 353.17 196.17 352.64
  L 190.30 324.57
  Q 190.07 323.48 191.04 324.03
  Z"
/>
<path fill="#00acea" d="
  M 315.64 327.16
  L 320.26 330.42
  L 315.46 352.46
  Q 315.32 353.14 314.65 352.96
  L 284.25 344.55
  A 0.45 0.45 0.0 0 1 284.16 343.72
  L 315.64 327.16
  Z"
/>
<path fill="#00acea" d="
  M 255.97 355.69
  Q 282.15 366.19 309.01 372.29
  Q 309.44 372.39 309.30 372.81
  C 303.01 392.04 292.89 414.05 277.67 427.77
  Q 268.40 436.11 255.97 437.48
  C 227.78 435.59 209.72 395.59 202.58 372.85
  Q 202.43 372.37 202.92 372.25
  Q 230.15 365.65 255.97 355.69
  Z"
/>
</svg>
